/* XPM */
static char * haskell_20_xpm[] = {
"25 20 2 1",
"  c None",
". c #dac0fa",
"                         ",
"                         ",
"                         ",
".... ....                ",
" .... ...                ",
"  ... ....               ",
"  .... ....              ",
"   .... ... ........     ",
"    ... .... .......     ",
"    .... ....            ",
"    .... ....            ",
"    ... ...... .....     ",
"   .... ....... ....     ",
"  .... .... ...          ",
"  ... ....  ....         ",
" .... ...    ....        ",
".... ....     ...        ",
"                         ",
"                         ",
"                         "};
