/* XPM */
static char *_0c48fdc8c0148ccc0840d22c689df39rFKKHc3d68LlSUJx[] = {
/* columns rows colors chars-per-pixel */
"16 16 2 1 ",
"  c None",
". c red",
/* pixels */
"                ",
" .    ....      ",
" ..  ..  ..     ",
"  ..      .     ",
"   ..     .     ",
"   ...  ....    ",
"   ....  ....   ",
"   .  ..    .   ",
"   .   ..   .   ",
"   .   ...  .   ",
"   .   ....     ",
"   .      ..    ",
"   .       ..   ",
"   ...........  ",
"    ........ .  ",
"                "
};
