/* XPM */
static char *d30a56eb40d64b4ba83e53f8b966f91eYTs0KOSxKMF8dTVp[] = {
/* columns rows colors chars-per-pixel */
"16 16 2 1 ",
"  c None",
". c green",
/* pixels */
"                ",
"      ....      ",
"     ..  ..     ",
"     .    .     ",
"     .    .     ",
"    ........    ",
"   ..........   ",
"   .        .   ",
"   .        .   ",
"   .   ..   .   ",
"   .   ..   .   ",
"   .        .   ",
"   .        .   ",
"   ..........   ",
"    ........    ",
"                "
};
