/* XPM */
static char *_61e37e1f27983579809470ee6864112[] = {
/* columns rows colors chars-per-pixel */
"63 63 2 1 ",
"  c None",
". c black",
/* pixels */
"                                                               ",
"                                                               ",
"                                                               ",
"                                                               ",
"                                                               ",
"                                                               ",
"                                        ................       ",
"          ..                             ................      ",
"         ....                             ...............      ",
"        ......                             ..............      ",
"       ........                             .............      ",
"       .........                             ............      ",
"        .........                             ...........      ",
"         .........                           ............      ",
"          .........                         .............      ",
"           .........                       ..............      ",
"            .........                     ...............      ",
"             .........                   ................      ",
"              .........                 .........   .....      ",
"               .........               .........     ....      ",
"                .........             .........       ...      ",
"                 .........           .........         ..      ",
"                  .........         .........           .      ",
"                   .......         .........                   ",
"                    .....         .........                    ",
"                     ...         .........                     ",
"                      .         .........                      ",
"                               .........                       ",
"                              .........                        ",
"                             .........                         ",
"                            .........                          ",
"                           .........                           ",
"                          .........                            ",
"                         .........                             ",
"                        .........                              ",
"                       .........                               ",
"                      .........         .                      ",
"                     .........         ...                     ",
"                    .........         .....                    ",
"                   .........         .......                   ",
"                  .........         .........           .      ",
"                 .........           .........         ..      ",
"                .........             .........       ...      ",
"               .........               .........     ....      ",
"              .........                 .........   .....      ",
"             .........                   ................      ",
"            .........                     ...............      ",
"           .........                       ..............      ",
"          .........                         .............      ",
"         .........                           ............      ",
"        .........                             ...........      ",
"       .........                             ............      ",
"       ........                             .............      ",
"        ......                             ..............      ",
"         ....                             ...............      ",
"          ..                             ................      ",
"                                        ................       ",
"                                                               ",
"                                                               ",
"                                                               ",
"                                                               ",
"                                                               ",
"                                                               "
};
